<svg id="Layer_1" data-name="Layer 1" xmlns="http://www.w3.org/2000/svg" viewBox="0 0 515.75 103.4"><defs><style>.cls-1{fill:#fff;}</style></defs><path class="cls-1" d="M482.2,421.74h7.36a1.12,1.12,0,0,1,1.12,1.12v36a1.12,1.12,0,0,1-1.12,1.12H482.2a1.12,1.12,0,0,1-1.12-1.12v-.48a1.11,1.11,0,0,0-1.79-.89,17,17,0,0,1-3.84,2.3,15.9,15.9,0,0,1-6.13,1.18,17,17,0,0,1-12.82-5.75,20.08,20.08,0,0,1-5.41-14.29q0-8.87,5.24-14.52A16.63,16.63,0,0,1,469,420.76a16.14,16.14,0,0,1,6.46,1.3,16.37,16.37,0,0,1,3.79,2.29,1.12,1.12,0,0,0,1.79-.9v-.59A1.12,1.12,0,0,1,482.2,421.74ZM471,429.62a9.72,9.72,0,0,0-7.39,3.14,12.45,12.45,0,0,0,1.22,17.32,9.46,9.46,0,0,0,5.41,2.08,10.05,10.05,0,0,0,8.3-3.12,11.53,11.53,0,0,0,3-8.24,11.19,11.19,0,0,0-3-8.09A10,10,0,0,0,471,429.62Z" transform="translate(-377.02 -394.79)"/><path class="cls-1" d="M496.37,421.74h6a1.12,1.12,0,0,1,1.12,1.12h0a1.11,1.11,0,0,0,1.92.77,9.37,9.37,0,0,1,1.63-1.4,8.59,8.59,0,0,1,4.85-1.47,8.41,8.41,0,0,1,2.88.54,1.13,1.13,0,0,1,.66,1.44l-2.22,6.15a1.11,1.11,0,0,1-1.46.64,5,5,0,0,0-1.72-.37q-2.22,0-3.75,2.74t-1.52,10.76l0,1.86v14.35a1.12,1.12,0,0,1-1.12,1.12h-7.29a1.12,1.12,0,0,1-1.12-1.12v-36A1.12,1.12,0,0,1,496.37,421.74Z" transform="translate(-377.02 -394.79)"/><path class="cls-1" d="M554.87,443.64H526.54a1.13,1.13,0,0,0-1.09,1.42,10,10,0,0,0,3.26,5.07,11.17,11.17,0,0,0,7.4,2.41,12.76,12.76,0,0,0,8.69-3.25,1.12,1.12,0,0,1,1.23-.19l6.16,2.89a1.13,1.13,0,0,1,.39,1.73,18.63,18.63,0,0,1-6.38,5.2,22.71,22.71,0,0,1-10,2.06q-9,0-14.66-5.68a19.31,19.31,0,0,1-5.66-14.22,20,20,0,0,1,5.64-14.54,19,19,0,0,1,14.15-5.78q9,0,14.7,5.78T556,441.82l0,.73A1.11,1.11,0,0,1,554.87,443.64Zm-10.14-7.56a1.12,1.12,0,0,0,1-1.65,9.81,9.81,0,0,0-3.1-3.55,10.9,10.9,0,0,0-6.5-2,11.5,11.5,0,0,0-7,2.25,10.11,10.11,0,0,0-2.66,3.26,1.12,1.12,0,0,0,1,1.69Z" transform="translate(-377.02 -394.79)"/><path class="cls-1" d="M598.08,443.64H569.75a1.13,1.13,0,0,0-1.09,1.42,10,10,0,0,0,3.26,5.07,11.17,11.17,0,0,0,7.4,2.41,12.76,12.76,0,0,0,8.69-3.25,1.12,1.12,0,0,1,1.23-.19L595.4,452a1.12,1.12,0,0,1,.38,1.73,18.5,18.5,0,0,1-6.37,5.2,22.71,22.71,0,0,1-10,2.06q-9,0-14.66-5.68a19.31,19.31,0,0,1-5.66-14.22,20,20,0,0,1,5.64-14.54,19,19,0,0,1,14.15-5.78q9,0,14.7,5.78t5.66,15.28l0,.73A1.11,1.11,0,0,1,598.08,443.64Zm-10.14-7.56a1.12,1.12,0,0,0,1-1.65,9.81,9.81,0,0,0-3.1-3.55,10.9,10.9,0,0,0-6.5-2,11.5,11.5,0,0,0-7,2.25,10.11,10.11,0,0,0-2.66,3.26,1.12,1.12,0,0,0,1,1.69Z" transform="translate(-377.02 -394.79)"/><path class="cls-1" d="M602.94,421.74h6a1.12,1.12,0,0,1,1.12,1.12h0a1.11,1.11,0,0,0,1.92.77,9,9,0,0,1,1.63-1.4,8.57,8.57,0,0,1,4.85-1.47,8.39,8.39,0,0,1,2.87.54,1.13,1.13,0,0,1,.67,1.44l-2.22,6.15a1.12,1.12,0,0,1-1.47.64,4.94,4.94,0,0,0-1.71-.37q-2.22,0-3.75,2.74t-1.53,10.76l0,1.86v14.35a1.12,1.12,0,0,1-1.12,1.12h-7.29a1.12,1.12,0,0,1-1.12-1.12v-36A1.12,1.12,0,0,1,602.94,421.74Z" transform="translate(-377.02 -394.79)"/><path class="cls-1" d="M459.74,413l-9.89,9.43a1.13,1.13,0,0,1-1.57,0q-11.43-11.58-25.58-11.58a28.86,28.86,0,0,0-29.27,29.27,30.73,30.73,0,0,0,3.75,15.3,26.81,26.81,0,0,0,10.59,10.5A30.8,30.8,0,0,0,423,469.67,31.33,31.33,0,0,0,436.05,467q5.56-2.52,12.19-8.92a1.13,1.13,0,0,1,1.59,0l9.56,10a1.12,1.12,0,0,1,0,1.59q-9.11,8.69-17.24,12.14a49.3,49.3,0,0,1-19.39,3.61q-20.1,0-32.9-12.75T377,440a44.76,44.76,0,0,1,5.83-22.91A43.49,43.49,0,0,1,399.55,401,47.13,47.13,0,0,1,423,394.91a49.66,49.66,0,0,1,36.85,16.5A1.13,1.13,0,0,1,459.74,413Z" transform="translate(-377.02 -394.79)"/><path class="cls-1" d="M720.27,421.51h7.46a1.12,1.12,0,0,1,1.12,1.12v17.3a25.59,25.59,0,0,0,.74,7.47,6.47,6.47,0,0,0,2.38,3.25,6.75,6.75,0,0,0,4,1.16,7.09,7.09,0,0,0,4.08-1.14,6.71,6.71,0,0,0,2.48-3.36q.6-1.65.6-7.06V422.63a1.12,1.12,0,0,1,1.12-1.12h7.36a1.12,1.12,0,0,1,1.12,1.12v15.09q0,10-1.59,13.71a14.83,14.83,0,0,1-5.69,6.9,17.41,17.41,0,0,1-9.56,2.41q-6.3,0-10.18-2.81a14.88,14.88,0,0,1-5.47-7.84q-1.12-3.48-1.12-12.66v-14.8A1.12,1.12,0,0,1,720.27,421.51Z" transform="translate(-377.02 -394.79)"/><path class="cls-1" d="M796.73,443.41H768.4a1.13,1.13,0,0,0-1.09,1.42,10,10,0,0,0,3.26,5.07,11.22,11.22,0,0,0,7.4,2.41,12.72,12.72,0,0,0,8.69-3.26,1.14,1.14,0,0,1,1.23-.19l6.16,2.89a1.13,1.13,0,0,1,.38,1.74,18.62,18.62,0,0,1-6.37,5.2,22.71,22.71,0,0,1-10,2.05q-9,0-14.66-5.68a19.28,19.28,0,0,1-5.66-14.22,20,20,0,0,1,5.64-14.53,18.94,18.94,0,0,1,14.15-5.79q9,0,14.7,5.79t5.66,15.27l0,.73A1.12,1.12,0,0,1,796.73,443.41Zm-10.14-7.56a1.13,1.13,0,0,0,1-1.65,9.73,9.73,0,0,0-3.1-3.55,10.83,10.83,0,0,0-6.5-2,11.5,11.5,0,0,0-7,2.25,10.11,10.11,0,0,0-2.66,3.26,1.12,1.12,0,0,0,1,1.69Z" transform="translate(-377.02 -394.79)"/><path class="cls-1" d="M825.43,427.56,821,432a1.1,1.1,0,0,1-1.52.06c-2.12-1.92-4.06-2.87-5.82-2.87a4.18,4.18,0,0,0-2.53.68,2.08,2.08,0,0,0-.92,1.71,2.12,2.12,0,0,0,.58,1.42,10.63,10.63,0,0,0,2.87,1.78l3.51,1.76q5.57,2.73,7.63,5.59a11.62,11.62,0,0,1-1.67,15.18q-3.74,3.42-10,3.41A15.92,15.92,0,0,1,800.3,455a1.11,1.11,0,0,1,.05-1.47l4.44-4.83a1.09,1.09,0,0,1,1.58-.06,13.63,13.63,0,0,0,3.19,2.35,8.71,8.71,0,0,0,4,1.21,4.79,4.79,0,0,0,3.06-.91,2.63,2.63,0,0,0,1.16-2.11q0-2.22-4.18-4.32l-3.24-1.62q-9.27-4.68-9.28-11.71a10.18,10.18,0,0,1,3.5-7.75,12.72,12.72,0,0,1,8.95-3.22,15.54,15.54,0,0,1,7,1.64,15.32,15.32,0,0,1,5,3.91A1.11,1.11,0,0,1,825.43,427.56Z" transform="translate(-377.02 -394.79)"/><path class="cls-1" d="M833.79,407.41h7.36a1.12,1.12,0,0,1,1.12,1.12v11.86a1.12,1.12,0,0,0,1.12,1.12h3.46a1.12,1.12,0,0,1,1.12,1.12v6a1.12,1.12,0,0,1-1.12,1.12h-3.46a1.12,1.12,0,0,0-1.12,1.12v27.75a1.12,1.12,0,0,1-1.12,1.12h-7.36a1.12,1.12,0,0,1-1.11-1.12V430.89a1.12,1.12,0,0,0-1.12-1.12h-2.69a1.12,1.12,0,0,1-1.12-1.12v-6a1.12,1.12,0,0,1,1.12-1.12h2.69a1.12,1.12,0,0,0,1.12-1.12V408.53A1.12,1.12,0,0,1,833.79,407.41Z" transform="translate(-377.02 -394.79)"/><path class="cls-1" d="M670,394.79A42.82,42.82,0,0,1,701.46,408a44.06,44.06,0,0,1,13.17,32.29q0,18.87-13,31.93a42.78,42.78,0,0,1-31.51,13.07q-19.41,0-32.25-13.42A45.29,45.29,0,0,1,670,394.79Zm-.18,16.06a27,27,0,0,0-20.12,8.32q-8.15,8.31-8.15,21.15,0,14.3,10.27,22.62a28.14,28.14,0,0,0,18.3,6.5A26.71,26.71,0,0,0,690,461a30.41,30.41,0,0,0-.06-41.63A27,27,0,0,0,669.83,410.85Z" transform="translate(-377.02 -394.79)"/><path class="cls-1" d="M777.06,498.19a139.37,139.37,0,0,1-48.82-8.6A142,142,0,0,1,677,456.51a1.13,1.13,0,0,1,0-1.6l7.66-7.56a1.12,1.12,0,0,1,1.57,0,129.21,129.21,0,0,0,46.48,30.05c35.84,13.31,67.4,6.43,84.36,2.74a181.31,181.31,0,0,0,56-22.59,1.1,1.1,0,0,1,1.53.36l5.67,9.15a1.13,1.13,0,0,1-.37,1.55,194.16,194.16,0,0,1-60.08,24.23C810.46,494.9,795.37,498.19,777.06,498.19Z" transform="translate(-377.02 -394.79)"/><rect class="cls-1" x="865.21" y="433.51" width="13" height="40.5" rx="1.12" transform="translate(-189.04 764.87) rotate(-73.41)"/><rect class="cls-1" x="861.14" y="464.48" width="39.94" height="13" rx="1.12" transform="translate(-198.82 786.2) rotate(-73.41)"/></svg>